<mxfile host="app.diagrams.net" modified="2023-12-04T20:41:43.712Z" agent="Mozilla/5.0 (Windows NT 10.0; Win64; x64) AppleWebKit/537.36 (KHTML, like Gecko) Chrome/119.0.0.0 Safari/537.36" etag="ujFvxUQWF7FOc5JsxhJF" version="22.1.5" type="device">
  <diagram name="Page-1" id="2cc2dc42-3aac-f2a9-1cec-7a8b7cbee084">
    <mxGraphModel dx="1614" dy="1059" grid="1" gridSize="10" guides="1" tooltips="1" connect="1" arrows="1" fold="1" page="1" pageScale="1" pageWidth="1100" pageHeight="850" background="none" math="0" shadow="0">
      <root>
        <mxCell id="0" />
        <mxCell id="1" parent="0" />
        <mxCell id="7026571954dc6520-1" value="" style="strokeWidth=1;shadow=0;dashed=0;align=center;html=1;shape=mxgraph.mockup.containers.browserWindow;rSize=0;strokeColor=#666666;mainText=,;recursiveResize=0;rounded=0;labelBackgroundColor=none;fontFamily=Verdana;fontSize=12" parent="1" vertex="1">
          <mxGeometry x="30" y="20" width="1050" height="820" as="geometry" />
        </mxCell>
        <mxCell id="7026571954dc6520-2" value="Todo" style="strokeWidth=1;shadow=0;dashed=0;align=center;html=1;shape=mxgraph.mockup.containers.anchor;fontSize=17;fontColor=#666666;align=left;" parent="7026571954dc6520-1" vertex="1">
          <mxGeometry x="60" y="12" width="110" height="26" as="geometry" />
        </mxCell>
        <mxCell id="7026571954dc6520-3" value="https://localhost/todo" style="strokeWidth=1;shadow=0;dashed=0;align=center;html=1;shape=mxgraph.mockup.containers.anchor;rSize=0;fontSize=17;fontColor=#666666;align=left;" parent="7026571954dc6520-1" vertex="1">
          <mxGeometry x="130" y="60" width="250" height="26" as="geometry" />
        </mxCell>
        <mxCell id="LGuZlCSkzYEWohBa6q08-1" value="Список задач" style="text;strokeColor=none;fillColor=none;html=1;fontSize=24;fontStyle=1;verticalAlign=middle;align=left;" vertex="1" parent="7026571954dc6520-1">
          <mxGeometry x="20" y="130" width="170" height="40" as="geometry" />
        </mxCell>
        <mxCell id="LGuZlCSkzYEWohBa6q08-2" value="Добавить задачу" style="html=1;shadow=0;dashed=0;shape=mxgraph.bootstrap.rrect;rSize=5;strokeColor=none;strokeWidth=1;fillColor=#0085FC;fontColor=#FFFFFF;whiteSpace=wrap;align=center;verticalAlign=middle;spacingLeft=0;fontStyle=0;fontSize=16;spacing=5;" vertex="1" parent="7026571954dc6520-1">
          <mxGeometry x="880" y="130" width="150" height="40" as="geometry" />
        </mxCell>
        <mxCell id="w5CqJ8kbO9rtzV_viNbl-7" value="" style="shape=table;startSize=0;container=1;collapsible=0;childLayout=tableLayout;fontSize=16;fillColor=none;" parent="7026571954dc6520-1" vertex="1">
          <mxGeometry x="20" y="180" width="1010" height="250" as="geometry" />
        </mxCell>
        <mxCell id="w5CqJ8kbO9rtzV_viNbl-8" value="" style="shape=tableRow;horizontal=0;startSize=0;swimlaneHead=0;swimlaneBody=0;strokeColor=inherit;top=0;left=0;bottom=0;right=0;collapsible=0;dropTarget=0;fillColor=none;points=[[0,0.5],[1,0.5]];portConstraint=eastwest;fontSize=16;" parent="w5CqJ8kbO9rtzV_viNbl-7" vertex="1">
          <mxGeometry width="1010" height="50" as="geometry" />
        </mxCell>
        <mxCell id="w5CqJ8kbO9rtzV_viNbl-9" value="Задача" style="shape=partialRectangle;html=1;whiteSpace=wrap;connectable=0;strokeColor=inherit;overflow=hidden;fillColor=none;top=0;left=0;bottom=0;right=0;pointerEvents=1;fontSize=16;" parent="w5CqJ8kbO9rtzV_viNbl-8" vertex="1">
          <mxGeometry width="336" height="50" as="geometry">
            <mxRectangle width="336" height="50" as="alternateBounds" />
          </mxGeometry>
        </mxCell>
        <mxCell id="w5CqJ8kbO9rtzV_viNbl-10" value="Описание" style="shape=partialRectangle;html=1;whiteSpace=wrap;connectable=0;strokeColor=inherit;overflow=hidden;fillColor=none;top=0;left=0;bottom=0;right=0;pointerEvents=1;fontSize=16;" parent="w5CqJ8kbO9rtzV_viNbl-8" vertex="1">
          <mxGeometry x="336" width="474" height="50" as="geometry">
            <mxRectangle width="474" height="50" as="alternateBounds" />
          </mxGeometry>
        </mxCell>
        <mxCell id="w5CqJ8kbO9rtzV_viNbl-11" value="" style="shape=partialRectangle;html=1;whiteSpace=wrap;connectable=0;strokeColor=inherit;overflow=hidden;fillColor=none;top=0;left=0;bottom=0;right=0;pointerEvents=1;fontSize=16;" parent="w5CqJ8kbO9rtzV_viNbl-8" vertex="1">
          <mxGeometry x="810" width="200" height="50" as="geometry">
            <mxRectangle width="200" height="50" as="alternateBounds" />
          </mxGeometry>
        </mxCell>
        <mxCell id="w5CqJ8kbO9rtzV_viNbl-12" value="" style="shape=tableRow;horizontal=0;startSize=0;swimlaneHead=0;swimlaneBody=0;strokeColor=inherit;top=0;left=0;bottom=0;right=0;collapsible=0;dropTarget=0;fillColor=none;points=[[0,0.5],[1,0.5]];portConstraint=eastwest;fontSize=16;" parent="w5CqJ8kbO9rtzV_viNbl-7" vertex="1">
          <mxGeometry y="50" width="1010" height="50" as="geometry" />
        </mxCell>
        <mxCell id="w5CqJ8kbO9rtzV_viNbl-13" value="Помыть посуду" style="shape=partialRectangle;html=1;whiteSpace=wrap;connectable=0;strokeColor=inherit;overflow=hidden;fillColor=none;top=0;left=0;bottom=0;right=0;pointerEvents=1;fontSize=16;align=left;spacingLeft=5;" parent="w5CqJ8kbO9rtzV_viNbl-12" vertex="1">
          <mxGeometry width="336" height="50" as="geometry">
            <mxRectangle width="336" height="50" as="alternateBounds" />
          </mxGeometry>
        </mxCell>
        <mxCell id="w5CqJ8kbO9rtzV_viNbl-14" value="Помыть посуду" style="shape=partialRectangle;html=1;whiteSpace=wrap;connectable=0;strokeColor=inherit;overflow=hidden;fillColor=none;top=0;left=0;bottom=0;right=0;pointerEvents=1;fontSize=16;align=left;spacingLeft=5;" parent="w5CqJ8kbO9rtzV_viNbl-12" vertex="1">
          <mxGeometry x="336" width="474" height="50" as="geometry">
            <mxRectangle width="474" height="50" as="alternateBounds" />
          </mxGeometry>
        </mxCell>
        <mxCell id="w5CqJ8kbO9rtzV_viNbl-15" value="" style="shape=partialRectangle;html=1;whiteSpace=wrap;connectable=0;strokeColor=inherit;overflow=hidden;fillColor=none;top=0;left=0;bottom=0;right=0;pointerEvents=1;fontSize=16;" parent="w5CqJ8kbO9rtzV_viNbl-12" vertex="1">
          <mxGeometry x="810" width="200" height="50" as="geometry">
            <mxRectangle width="200" height="50" as="alternateBounds" />
          </mxGeometry>
        </mxCell>
        <mxCell id="w5CqJ8kbO9rtzV_viNbl-16" value="" style="shape=tableRow;horizontal=0;startSize=0;swimlaneHead=0;swimlaneBody=0;strokeColor=inherit;top=0;left=0;bottom=0;right=0;collapsible=0;dropTarget=0;fillColor=none;points=[[0,0.5],[1,0.5]];portConstraint=eastwest;fontSize=16;" parent="w5CqJ8kbO9rtzV_viNbl-7" vertex="1">
          <mxGeometry y="100" width="1010" height="50" as="geometry" />
        </mxCell>
        <mxCell id="w5CqJ8kbO9rtzV_viNbl-17" value="Сделать лабы" style="shape=partialRectangle;html=1;whiteSpace=wrap;connectable=0;strokeColor=inherit;overflow=hidden;fillColor=none;top=0;left=0;bottom=0;right=0;pointerEvents=1;fontSize=16;align=left;spacingLeft=5;" parent="w5CqJ8kbO9rtzV_viNbl-16" vertex="1">
          <mxGeometry width="336" height="50" as="geometry">
            <mxRectangle width="336" height="50" as="alternateBounds" />
          </mxGeometry>
        </mxCell>
        <mxCell id="w5CqJ8kbO9rtzV_viNbl-18" value="Сделать все задания" style="shape=partialRectangle;html=1;whiteSpace=wrap;connectable=0;strokeColor=inherit;overflow=hidden;fillColor=none;top=0;left=0;bottom=0;right=0;pointerEvents=1;fontSize=16;align=left;spacingLeft=5;" parent="w5CqJ8kbO9rtzV_viNbl-16" vertex="1">
          <mxGeometry x="336" width="474" height="50" as="geometry">
            <mxRectangle width="474" height="50" as="alternateBounds" />
          </mxGeometry>
        </mxCell>
        <mxCell id="w5CqJ8kbO9rtzV_viNbl-19" value="" style="shape=partialRectangle;html=1;whiteSpace=wrap;connectable=0;strokeColor=inherit;overflow=hidden;fillColor=none;top=0;left=0;bottom=0;right=0;pointerEvents=1;fontSize=16;" parent="w5CqJ8kbO9rtzV_viNbl-16" vertex="1">
          <mxGeometry x="810" width="200" height="50" as="geometry">
            <mxRectangle width="200" height="50" as="alternateBounds" />
          </mxGeometry>
        </mxCell>
        <mxCell id="w5CqJ8kbO9rtzV_viNbl-20" style="shape=tableRow;horizontal=0;startSize=0;swimlaneHead=0;swimlaneBody=0;strokeColor=inherit;top=0;left=0;bottom=0;right=0;collapsible=0;dropTarget=0;fillColor=none;points=[[0,0.5],[1,0.5]];portConstraint=eastwest;fontSize=16;" parent="w5CqJ8kbO9rtzV_viNbl-7" vertex="1">
          <mxGeometry y="150" width="1010" height="50" as="geometry" />
        </mxCell>
        <mxCell id="w5CqJ8kbO9rtzV_viNbl-21" value="Покормить собаку" style="shape=partialRectangle;html=1;whiteSpace=wrap;connectable=0;strokeColor=inherit;overflow=hidden;fillColor=none;top=0;left=0;bottom=0;right=0;pointerEvents=1;fontSize=16;align=left;spacingLeft=5;" parent="w5CqJ8kbO9rtzV_viNbl-20" vertex="1">
          <mxGeometry width="336" height="50" as="geometry">
            <mxRectangle width="336" height="50" as="alternateBounds" />
          </mxGeometry>
        </mxCell>
        <mxCell id="w5CqJ8kbO9rtzV_viNbl-22" value="Покормить и выгулять" style="shape=partialRectangle;html=1;whiteSpace=wrap;connectable=0;strokeColor=inherit;overflow=hidden;fillColor=none;top=0;left=0;bottom=0;right=0;pointerEvents=1;fontSize=16;align=left;spacingLeft=5;" parent="w5CqJ8kbO9rtzV_viNbl-20" vertex="1">
          <mxGeometry x="336" width="474" height="50" as="geometry">
            <mxRectangle width="474" height="50" as="alternateBounds" />
          </mxGeometry>
        </mxCell>
        <mxCell id="w5CqJ8kbO9rtzV_viNbl-23" style="shape=partialRectangle;html=1;whiteSpace=wrap;connectable=0;strokeColor=inherit;overflow=hidden;fillColor=none;top=0;left=0;bottom=0;right=0;pointerEvents=1;fontSize=16;" parent="w5CqJ8kbO9rtzV_viNbl-20" vertex="1">
          <mxGeometry x="810" width="200" height="50" as="geometry">
            <mxRectangle width="200" height="50" as="alternateBounds" />
          </mxGeometry>
        </mxCell>
        <mxCell id="w5CqJ8kbO9rtzV_viNbl-24" style="shape=tableRow;horizontal=0;startSize=0;swimlaneHead=0;swimlaneBody=0;strokeColor=inherit;top=0;left=0;bottom=0;right=0;collapsible=0;dropTarget=0;fillColor=none;points=[[0,0.5],[1,0.5]];portConstraint=eastwest;fontSize=16;" parent="w5CqJ8kbO9rtzV_viNbl-7" vertex="1">
          <mxGeometry y="200" width="1010" height="50" as="geometry" />
        </mxCell>
        <mxCell id="w5CqJ8kbO9rtzV_viNbl-25" value="Сходить в магазин" style="shape=partialRectangle;html=1;whiteSpace=wrap;connectable=0;strokeColor=inherit;overflow=hidden;fillColor=none;top=0;left=0;bottom=0;right=0;pointerEvents=1;fontSize=16;align=left;spacingLeft=5;" parent="w5CqJ8kbO9rtzV_viNbl-24" vertex="1">
          <mxGeometry width="336" height="50" as="geometry">
            <mxRectangle width="336" height="50" as="alternateBounds" />
          </mxGeometry>
        </mxCell>
        <mxCell id="w5CqJ8kbO9rtzV_viNbl-26" value="Купить хлеб, батон" style="shape=partialRectangle;html=1;whiteSpace=wrap;connectable=0;strokeColor=inherit;overflow=hidden;fillColor=none;top=0;left=0;bottom=0;right=0;pointerEvents=1;fontSize=16;align=left;spacingLeft=5;" parent="w5CqJ8kbO9rtzV_viNbl-24" vertex="1">
          <mxGeometry x="336" width="474" height="50" as="geometry">
            <mxRectangle width="474" height="50" as="alternateBounds" />
          </mxGeometry>
        </mxCell>
        <mxCell id="w5CqJ8kbO9rtzV_viNbl-27" style="shape=partialRectangle;html=1;whiteSpace=wrap;connectable=0;strokeColor=inherit;overflow=hidden;fillColor=none;top=0;left=0;bottom=0;right=0;pointerEvents=1;fontSize=16;" parent="w5CqJ8kbO9rtzV_viNbl-24" vertex="1">
          <mxGeometry x="810" width="200" height="50" as="geometry">
            <mxRectangle width="200" height="50" as="alternateBounds" />
          </mxGeometry>
        </mxCell>
        <mxCell id="LGuZlCSkzYEWohBa6q08-18" value="Удалить" style="html=1;shadow=0;dashed=0;shape=mxgraph.bootstrap.rrect;rSize=5;strokeColor=none;strokeWidth=1;fillColor=#DB2843;fontColor=#FFFFFF;whiteSpace=wrap;align=center;verticalAlign=middle;spacingLeft=0;fontStyle=0;fontSize=16;spacing=5;connectable=1;" vertex="1" parent="7026571954dc6520-1">
          <mxGeometry x="940" y="385" width="80" height="40" as="geometry" />
        </mxCell>
        <mxCell id="LGuZlCSkzYEWohBa6q08-19" value="Удалить" style="html=1;shadow=0;dashed=0;shape=mxgraph.bootstrap.rrect;rSize=5;strokeColor=none;strokeWidth=1;fillColor=#DB2843;fontColor=#FFFFFF;whiteSpace=wrap;align=center;verticalAlign=middle;spacingLeft=0;fontStyle=0;fontSize=16;spacing=5;connectable=1;" vertex="1" parent="7026571954dc6520-1">
          <mxGeometry x="940" y="336" width="80" height="40" as="geometry" />
        </mxCell>
        <mxCell id="LGuZlCSkzYEWohBa6q08-20" value="Удалить" style="html=1;shadow=0;dashed=0;shape=mxgraph.bootstrap.rrect;rSize=5;strokeColor=none;strokeWidth=1;fillColor=#DB2843;fontColor=#FFFFFF;whiteSpace=wrap;align=center;verticalAlign=middle;spacingLeft=0;fontStyle=0;fontSize=16;spacing=5;connectable=1;" vertex="1" parent="7026571954dc6520-1">
          <mxGeometry x="940" y="285" width="80" height="40" as="geometry" />
        </mxCell>
        <mxCell id="LGuZlCSkzYEWohBa6q08-21" value="Удалить" style="html=1;shadow=0;dashed=0;shape=mxgraph.bootstrap.rrect;rSize=5;strokeColor=none;strokeWidth=1;fillColor=#DB2843;fontColor=#FFFFFF;whiteSpace=wrap;align=center;verticalAlign=middle;spacingLeft=0;fontStyle=0;fontSize=16;spacing=5;connectable=1;" vertex="1" parent="7026571954dc6520-1">
          <mxGeometry x="940" y="235" width="80" height="40" as="geometry" />
        </mxCell>
        <mxCell id="LGuZlCSkzYEWohBa6q08-28" value="Изменить" style="html=1;shadow=0;dashed=0;shape=mxgraph.bootstrap.rrect;rSize=5;strokeColor=none;strokeWidth=1;fillColor=#33A64C;fontColor=#FFFFFF;whiteSpace=wrap;align=center;verticalAlign=middle;spacingLeft=0;fontStyle=0;fontSize=16;spacing=5;" vertex="1" parent="7026571954dc6520-1">
          <mxGeometry x="840" y="385" width="90" height="40" as="geometry" />
        </mxCell>
        <mxCell id="LGuZlCSkzYEWohBa6q08-29" value="Изменить" style="html=1;shadow=0;dashed=0;shape=mxgraph.bootstrap.rrect;rSize=5;strokeColor=none;strokeWidth=1;fillColor=#33A64C;fontColor=#FFFFFF;whiteSpace=wrap;align=center;verticalAlign=middle;spacingLeft=0;fontStyle=0;fontSize=16;spacing=5;" vertex="1" parent="7026571954dc6520-1">
          <mxGeometry x="840" y="336" width="90" height="40" as="geometry" />
        </mxCell>
        <mxCell id="LGuZlCSkzYEWohBa6q08-30" value="Изменить" style="html=1;shadow=0;dashed=0;shape=mxgraph.bootstrap.rrect;rSize=5;strokeColor=none;strokeWidth=1;fillColor=#33A64C;fontColor=#FFFFFF;whiteSpace=wrap;align=center;verticalAlign=middle;spacingLeft=0;fontStyle=0;fontSize=16;spacing=5;" vertex="1" parent="7026571954dc6520-1">
          <mxGeometry x="840" y="285" width="90" height="40" as="geometry" />
        </mxCell>
        <mxCell id="LGuZlCSkzYEWohBa6q08-31" value="Изменить" style="html=1;shadow=0;dashed=0;shape=mxgraph.bootstrap.rrect;rSize=5;strokeColor=none;strokeWidth=1;fillColor=#33A64C;fontColor=#FFFFFF;whiteSpace=wrap;align=center;verticalAlign=middle;spacingLeft=0;fontStyle=0;fontSize=16;spacing=5;" vertex="1" parent="7026571954dc6520-1">
          <mxGeometry x="840" y="235" width="90" height="40" as="geometry" />
        </mxCell>
        <mxCell id="LGuZlCSkzYEWohBa6q08-34" value="Введите заголовок задачи..." style="html=1;shadow=0;dashed=0;shape=mxgraph.bootstrap.rrect;rSize=5;strokeWidth=1;whiteSpace=wrap;align=left;verticalAlign=middle;spacingLeft=10;fontSize=14;editable=1;movable=1;resizable=1;rotatable=1;deletable=1;locked=0;connectable=1;" vertex="1" parent="7026571954dc6520-1">
          <mxGeometry x="20" y="510" width="1010" height="40" as="geometry" />
        </mxCell>
        <mxCell id="LGuZlCSkzYEWohBa6q08-35" value="Введите описание задачи..." style="html=1;shadow=0;dashed=0;shape=mxgraph.bootstrap.rrect;rSize=5;strokeWidth=1;whiteSpace=wrap;align=left;verticalAlign=top;spacingLeft=10;fontSize=14;editable=1;movable=1;resizable=1;rotatable=1;deletable=1;locked=0;connectable=1;" vertex="1" parent="7026571954dc6520-1">
          <mxGeometry x="20" y="590" width="1010" height="130" as="geometry" />
        </mxCell>
        <mxCell id="LGuZlCSkzYEWohBa6q08-37" value="&lt;font style=&quot;font-size: 14px;&quot;&gt;Описание задачи:&lt;/font&gt;" style="text;html=1;strokeColor=none;fillColor=none;align=left;verticalAlign=middle;whiteSpace=wrap;rounded=0;" vertex="1" parent="7026571954dc6520-1">
          <mxGeometry x="20" y="560" width="520" height="30" as="geometry" />
        </mxCell>
        <mxCell id="LGuZlCSkzYEWohBa6q08-38" value="Задача" style="text;strokeColor=none;fillColor=none;html=1;fontSize=24;fontStyle=1;verticalAlign=middle;align=left;" vertex="1" parent="7026571954dc6520-1">
          <mxGeometry x="20" y="460" width="170" height="40" as="geometry" />
        </mxCell>
        <mxCell id="LGuZlCSkzYEWohBa6q08-40" value="Сохранить" style="html=1;shadow=0;dashed=0;shape=mxgraph.bootstrap.rrect;rSize=5;strokeColor=none;strokeWidth=1;fillColor=#33A64C;fontColor=#FFFFFF;whiteSpace=wrap;align=center;verticalAlign=middle;spacingLeft=0;fontStyle=0;fontSize=16;spacing=5;" vertex="1" parent="7026571954dc6520-1">
          <mxGeometry x="940" y="740" width="90" height="40" as="geometry" />
        </mxCell>
        <mxCell id="LGuZlCSkzYEWohBa6q08-41" value="Отмена" style="html=1;shadow=0;dashed=0;shape=mxgraph.bootstrap.rrect;rSize=5;strokeColor=none;strokeWidth=1;fillColor=#6C767D;fontColor=#FFFFFF;whiteSpace=wrap;align=center;verticalAlign=middle;spacingLeft=0;fontStyle=0;fontSize=16;spacing=5;" vertex="1" parent="7026571954dc6520-1">
          <mxGeometry x="830" y="740" width="100" height="40" as="geometry" />
        </mxCell>
        <mxCell id="w5CqJ8kbO9rtzV_viNbl-1" value="" style="strokeWidth=1;shadow=0;dashed=0;align=center;html=1;shape=mxgraph.mockup.containers.browserWindow;rSize=0;strokeColor=#666666;mainText=,;recursiveResize=0;rounded=0;labelBackgroundColor=none;fontFamily=Verdana;fontSize=12" parent="1" vertex="1">
          <mxGeometry x="30" y="865" width="1050" height="820" as="geometry" />
        </mxCell>
        <mxCell id="w5CqJ8kbO9rtzV_viNbl-2" value="Delete" style="strokeWidth=1;shadow=0;dashed=0;align=center;html=1;shape=mxgraph.mockup.containers.anchor;fontSize=17;fontColor=#666666;align=left;" parent="w5CqJ8kbO9rtzV_viNbl-1" vertex="1">
          <mxGeometry x="60" y="12" width="110" height="26" as="geometry" />
        </mxCell>
        <mxCell id="w5CqJ8kbO9rtzV_viNbl-3" value="https://localhost/delete" style="strokeWidth=1;shadow=0;dashed=0;align=center;html=1;shape=mxgraph.mockup.containers.anchor;rSize=0;fontSize=17;fontColor=#666666;align=left;" parent="w5CqJ8kbO9rtzV_viNbl-1" vertex="1">
          <mxGeometry x="130" y="60" width="250" height="26" as="geometry" />
        </mxCell>
        <mxCell id="LGuZlCSkzYEWohBa6q08-49" value="&lt;font style=&quot;font-size: 14px;&quot;&gt;Вы действительно хотите удалить задачу &lt;b&gt;&amp;lt;Наименование_задачи&amp;gt;&lt;/b&gt;? Если да, то нажмите кнопку &quot;Удалить&quot;, иначе нажмите &quot;Отмена&quot;.&amp;nbsp;&lt;/font&gt;" style="text;html=1;strokeColor=none;fillColor=none;align=left;verticalAlign=top;whiteSpace=wrap;rounded=0;" vertex="1" parent="w5CqJ8kbO9rtzV_viNbl-1">
          <mxGeometry x="20" y="175" width="1010" height="35" as="geometry" />
        </mxCell>
        <mxCell id="LGuZlCSkzYEWohBa6q08-50" value="Удаление задачи" style="text;strokeColor=none;fillColor=none;html=1;fontSize=24;fontStyle=1;verticalAlign=middle;align=left;" vertex="1" parent="w5CqJ8kbO9rtzV_viNbl-1">
          <mxGeometry x="20" y="135" width="170" height="40" as="geometry" />
        </mxCell>
        <mxCell id="LGuZlCSkzYEWohBa6q08-51" value="Удалить" style="html=1;shadow=0;dashed=0;shape=mxgraph.bootstrap.rrect;rSize=5;strokeColor=none;strokeWidth=1;fillColor=#DB2843;fontColor=#FFFFFF;whiteSpace=wrap;align=center;verticalAlign=middle;spacingLeft=0;fontStyle=0;fontSize=16;spacing=5;connectable=1;" vertex="1" parent="w5CqJ8kbO9rtzV_viNbl-1">
          <mxGeometry x="950" y="225" width="80" height="40" as="geometry" />
        </mxCell>
        <mxCell id="LGuZlCSkzYEWohBa6q08-52" value="Отмена" style="html=1;shadow=0;dashed=0;shape=mxgraph.bootstrap.rrect;rSize=5;strokeColor=none;strokeWidth=1;fillColor=#6C767D;fontColor=#FFFFFF;whiteSpace=wrap;align=center;verticalAlign=middle;spacingLeft=0;fontStyle=0;fontSize=16;spacing=5;" vertex="1" parent="w5CqJ8kbO9rtzV_viNbl-1">
          <mxGeometry x="840" y="225" width="100" height="40" as="geometry" />
        </mxCell>
        <mxCell id="LGuZlCSkzYEWohBa6q08-45" value="При нажатии на кнопку &quot;Добавить задачу&quot; открывается область &quot;Задача&quot; с пустыми полями" style="shape=callout;whiteSpace=wrap;html=1;perimeter=calloutPerimeter;position2=0;size=30;position=0.08;fillColor=none;fontColor=#333333;strokeColor=#858585;rounded=1;align=left;verticalAlign=middle;spacingLeft=5;" vertex="1" parent="1">
          <mxGeometry x="1090" y="70" width="340" height="90" as="geometry" />
        </mxCell>
        <mxCell id="LGuZlCSkzYEWohBa6q08-47" value="При нажатии на кнопку &quot;Удалить&quot; открывается страница удаления задачи. При нажатии на кнопку &quot;Изменить&quot; открывается область &quot;Задача&quot; с заполненными полями" style="shape=callout;whiteSpace=wrap;html=1;perimeter=calloutPerimeter;position2=0;size=30;position=0.08;fillColor=none;fontColor=#333333;strokeColor=#858585;rounded=1;align=left;verticalAlign=middle;spacingLeft=5;" vertex="1" parent="1">
          <mxGeometry x="1090" y="220" width="340" height="100" as="geometry" />
        </mxCell>
        <mxCell id="LGuZlCSkzYEWohBa6q08-48" value="При нажатии на кнопку &quot;Удалить&quot; выполняется удаление задачи и возврат на страницу &quot;Список задач&quot;. При нажатии на кнопку &quot;Отмена&quot; выполняется возврат на страницу &quot;Список задач&quot;" style="shape=callout;whiteSpace=wrap;html=1;perimeter=calloutPerimeter;position2=0;size=30;position=0.08;fillColor=none;fontColor=#333333;strokeColor=#858585;rounded=1;align=left;verticalAlign=middle;spacingLeft=5;" vertex="1" parent="1">
          <mxGeometry x="1090" y="1010" width="340" height="100" as="geometry" />
        </mxCell>
        <mxCell id="LGuZlCSkzYEWohBa6q08-53" value="При нажатии на кнопку &quot;Сохранить&quot; выполняется добавление новой задачи или обновление редактируемой. При нажатии на кнопку &quot;Отмена&quot; закрывается область &quot;Задача&quot;" style="shape=callout;whiteSpace=wrap;html=1;perimeter=calloutPerimeter;position2=0;size=30;position=0.08;fillColor=none;fontColor=#333333;strokeColor=#858585;rounded=1;align=left;verticalAlign=middle;spacingLeft=5;" vertex="1" parent="1">
          <mxGeometry x="1100" y="670" width="340" height="100" as="geometry" />
        </mxCell>
      </root>
    </mxGraphModel>
  </diagram>
</mxfile>
